Disc Title:     Angry Birds Movie 2, The – Blu-ray™
Disc Label:     The.Angry.Birds.Movie.2.2019.1080p.EUR.Blu-ray.AVC.DTS-HD.MA.5.1-CapBd
Disc Size:      42,151,791,242 bytes
Protection:     AACS
Extras:         BD-Java
BDInfo:         0.7.5.5

Notes:          

BDINFO HOME:
  Cinema Squid (old)
    http://www.cinemasquid.com/blu-ray/tools/bdinfo
  UniqProject GitHub (new)
   https://github.com/UniqProject/BDInfo

INCLUDES FORUMS REPORT FOR:
  AVS Forum Blu-ray Audio and Video Specifications Thread
    http://www.avsforum.com/avs-vb/showthread.php?t=1155731


********************
PLAYLIST: 00436.MPLS
********************

<--- BEGIN FORUMS PASTE --->
[code]
                                                                                                                Total   Video                                             
Title                                                           Codec   Length  Movie Size      Disc Size       Bitrate Bitrate Main Audio Track                          Secondary Audio Track
-----                                                           ------  ------- --------------  --------------  ------- ------- ------------------                        ---------------------
00436.MPLS                                                      AVC     1:36:47 30,046,157,760  42,151,791,242  41.39   22.64   DTS-HD Master 5.1 2285Kbps (48kHz/16-bit) DD AC3 5.1 640Kbps
[/code]

[code]

DISC INFO:

Disc Title:     Angry Birds Movie 2, The – Blu-ray™
Disc Label:     The.Angry.Birds.Movie.2.2019.1080p.EUR.Blu-ray.AVC.DTS-HD.MA.5.1-CapBd
Disc Size:      42,151,791,242 bytes
Protection:     AACS
Extras:         BD-Java
BDInfo:         0.7.5.5

PLAYLIST REPORT:

Name:                   00436.MPLS
Length:                 1:36:47.802 (h:m:s.ms)
Size:                   30,046,157,760 bytes
Total Bitrate:          41.39 Mbps

VIDEO:

Codec                   Bitrate             Description     
-----                   -------             -----------     
MPEG-4 AVC Video        22644 kbps          1080p / 23.976 fps / 16:9 / High Profile 4.1

AUDIO:

Codec                           Language        Bitrate         Description     
-----                           --------        -------         -----------     
DTS-HD Master Audio             English         2285 kbps       5.1 / 48 kHz /  2285 kbps / 16-bit (DTS Core: 5.1 / 48 kHz /  1509 kbps / 16-bit)
Dolby Digital Audio             English         640 kbps        5.1 / 48 kHz /   640 kbps / DN -31dB
Dolby Digital Audio             Arabic          640 kbps        5.1 / 48 kHz /   640 kbps / DN -31dB
Dolby Digital Audio             Bulgarian       640 kbps        5.1 / 48 kHz /   640 kbps / DN -31dB
Dolby Digital Audio             Croatian        640 kbps        5.1 / 48 kHz /   640 kbps / DN -31dB
Dolby Digital Audio             Czech           640 kbps        5.1 / 48 kHz /   640 kbps / DN -31dB
Dolby Digital Audio             Dutch           640 kbps        5.1 / 48 kHz /   640 kbps / DN -31dB
Dolby Digital Audio             Greek           640 kbps        5.1 / 48 kHz /   640 kbps / DN -31dB
Dolby Digital Audio             Hebrew          640 kbps        5.1 / 48 kHz /   640 kbps / DN -31dB
Dolby Digital Audio             Hindi           640 kbps        5.1 / 48 kHz /   640 kbps / DN -31dB
Dolby Digital Audio             Hungarian       640 kbps        5.1 / 48 kHz /   640 kbps / DN -31dB
Dolby Digital Audio             Icelandic       640 kbps        5.1 / 48 kHz /   640 kbps / DN -31dB
Dolby Digital Audio             Polish          640 kbps        5.1 / 48 kHz /   640 kbps / DN -31dB
Dolby Digital Audio             Portuguese      640 kbps        5.1 / 48 kHz /   640 kbps / DN -31dB
Dolby Digital Audio             Romanian        640 kbps        5.1 / 48 kHz /   640 kbps / DN -31dB
Dolby Digital Audio             Serbian         640 kbps        5.1 / 48 kHz /   640 kbps / DN -31dB
Dolby Digital Audio             Slovak          640 kbps        5.1 / 48 kHz /   640 kbps / DN -31dB
Dolby Digital Audio             Slovenian       640 kbps        5.1 / 48 kHz /   640 kbps / DN -31dB
Dolby Digital Audio             Tamil           640 kbps        5.1 / 48 kHz /   640 kbps / DN -31dB
Dolby Digital Audio             Telugu          640 kbps        5.1 / 48 kHz /   640 kbps / DN -31dB
Dolby Digital Audio             Turkish         640 kbps        5.1 / 48 kHz /   640 kbps / DN -31dB

SUBTITLES:

Codec                           Language        Bitrate         Description     
-----                           --------        -------         -----------     
Presentation Graphics           English         36.860 kbps                     
Presentation Graphics           English         47.446 kbps                     
Presentation Graphics           Arabic          18.926 kbps                     
Presentation Graphics           Bulgarian       31.592 kbps                     
Presentation Graphics           Croatian        31.916 kbps                     
Presentation Graphics           Czech           31.692 kbps                     
Presentation Graphics           Dutch           29.268 kbps                     
Presentation Graphics           Greek           36.235 kbps                     
Presentation Graphics           Hebrew          23.369 kbps                     
Presentation Graphics           Hungarian       34.289 kbps                     
Presentation Graphics           Icelandic       33.444 kbps                     
Presentation Graphics           Polish          34.839 kbps                     
Presentation Graphics           Portuguese      35.883 kbps                     
Presentation Graphics           Romanian        33.552 kbps                     
Presentation Graphics           Serbian         34.301 kbps                     
Presentation Graphics           Slovak          33.168 kbps                     
Presentation Graphics           Slovenian       27.612 kbps                     
Presentation Graphics           Turkish         38.700 kbps                     

FILES:

Name            Time In         Length          Size            Total Bitrate   
----            -------         ------          ----            -------------   
00001.M2TS      0:00:00.000     1:28:43.985     27,571,293,120  41,430          
00381.M2TS      1:28:43.985     0:08:03.816     2,474,864,640   40,922          

CHAPTERS:

Number          Time In         Length          Avg Video Rate  Max 1-Sec Rate  Max 1-Sec Time  Max 5-Sec Rate  Max 5-Sec Time  Max 10Sec Rate  Max 10Sec Time  Avg Frame Size  Max Frame Size  Max Frame Time  
------          -------         ------          --------------  --------------  --------------  --------------  --------------  --------------  --------------  --------------  --------------  --------------  
1               0:00:00.000     0:05:19.485     22,587 kbps     44,125 kbps     00:04:13.544    30,334 kbps     00:00:59.017    27,719 kbps     00:00:58.933    117,743 bytes   693,491 bytes   00:04:44.993    
2               0:05:19.485     0:06:46.406     22,950 kbps     44,577 kbps     00:05:25.116    31,771 kbps     00:11:52.503    29,253 kbps     00:11:48.499    119,653 bytes   755,263 bytes   00:08:55.826    
3               0:12:05.891     0:06:46.781     22,329 kbps     41,373 kbps     00:16:52.803    29,285 kbps     00:17:19.037    27,764 kbps     00:17:18.037    116,415 bytes   723,618 bytes   00:12:07.560    
4               0:18:52.673     0:05:19.193     22,532 kbps     40,292 kbps     00:19:23.370    30,010 kbps     00:21:24.324    28,023 kbps     00:21:19.319    117,471 bytes   745,747 bytes   00:19:36.383    
5               0:24:11.867     0:04:34.816     22,534 kbps     40,846 kbps     00:28:18.613    28,132 kbps     00:25:02.501    25,974 kbps     00:24:50.906    117,482 bytes   771,613 bytes   00:25:04.711    
6               0:28:46.683     0:06:01.778     23,088 kbps     41,677 kbps     00:29:32.020    28,292 kbps     00:29:59.714    26,411 kbps     00:29:54.709    120,372 bytes   748,168 bytes   00:30:43.216    
7               0:34:48.461     0:05:21.696     23,458 kbps     45,145 kbps     00:39:10.389    33,367 kbps     00:39:06.260    32,094 kbps     00:39:17.730    122,299 bytes   733,776 bytes   00:39:30.785    
8               0:40:10.157     0:07:00.670     22,783 kbps     43,785 kbps     00:41:46.003    31,963 kbps     00:42:30.005    29,208 kbps     00:41:40.748    118,778 bytes   761,011 bytes   00:40:19.834    
9               0:47:10.828     0:05:45.553     22,500 kbps     41,662 kbps     00:50:54.134    32,044 kbps     00:49:57.285    28,416 kbps     00:49:52.072    117,304 bytes   746,044 bytes   00:49:53.782    
10              0:52:56.381     0:05:08.308     22,413 kbps     34,763 kbps     00:57:05.130    26,581 kbps     00:55:34.998    24,793 kbps     00:57:03.920    116,850 bytes   761,558 bytes   00:52:56.965    
11              0:58:04.689     0:06:31.432     22,833 kbps     44,334 kbps     01:00:48.061    27,503 kbps     01:00:46.726    25,074 kbps     01:00:54.776    119,043 bytes   771,342 bytes   01:03:47.698    
12              1:04:36.122     0:05:19.527     22,265 kbps     39,032 kbps     01:05:36.557    32,655 kbps     01:05:32.470    26,515 kbps     01:09:09.311    116,080 bytes   775,577 bytes   01:05:18.039    
13              1:09:55.649     0:05:44.635     23,669 kbps     43,828 kbps     01:11:56.353    30,257 kbps     01:11:53.892    27,351 kbps     01:11:48.804    123,397 bytes   756,677 bytes   01:10:30.601    
14              1:15:40.285     0:05:30.830     22,140 kbps     40,973 kbps     01:18:44.010    31,807 kbps     01:18:44.010    31,423 kbps     01:18:44.010    120,549 bytes   751,426 bytes   01:16:25.122    
15              1:21:11.116     0:05:15.732     22,001 kbps     37,645 kbps     01:25:11.272    29,776 kbps     01:25:08.103    26,907 kbps     01:25:18.238    114,702 bytes   712,507 bytes   01:21:16.913    
16              1:26:26.848     0:10:20.953     22,308 kbps     52,379 kbps     01:31:46.125    29,378 kbps     01:31:46.125    26,139 kbps     01:31:46.125    116,311 bytes   708,992 bytes   01:27:07.972    

STREAM DIAGNOSTICS:

File            PID             Type            Codec           Language                Seconds                 Bitrate                 Bytes           Packets         
----            ---             ----            -----           --------                --------------          --------------          -------------   -----           
00001.M2TS      4113 (0x1011)   0x1B            AVC                                     5323.860                22,663                  15,081,940,157  82,042,056      
00001.M2TS      4352 (0x1100)   0x86            DTS-HD MA       eng (English)           5323.860                2,256                   1,501,112,428   8,997,621       
00001.M2TS      4353 (0x1101)   0x81            AC3             eng (English)           5323.860                638                     424,801,280     2,489,070       
00001.M2TS      4354 (0x1102)   0x81            AC3             ara (Arabic)            5323.860                638                     424,801,280     2,489,070       
00001.M2TS      4355 (0x1103)   0x81            AC3             bul (Bulgarian)         5323.860                638                     424,801,280     2,489,070       
00001.M2TS      4356 (0x1104)   0x81            AC3             hrv (Croatian)          5323.860                638                     424,801,280     2,489,070       
00001.M2TS      4357 (0x1105)   0x81            AC3             ces (Czech)             5323.860                638                     424,801,280     2,489,070       
00001.M2TS      4358 (0x1106)   0x81            AC3             nld (Dutch)             5323.860                638                     424,801,280     2,489,070       
00001.M2TS      4359 (0x1107)   0x81            AC3             ell (Greek)             5323.860                638                     424,801,280     2,489,070       
00001.M2TS      4360 (0x1108)   0x81            AC3             heb (Hebrew)            5323.860                638                     424,801,280     2,489,070       
00001.M2TS      4361 (0x1109)   0x81            AC3             hin (Hindi)             5323.860                638                     424,801,280     2,489,070       
00001.M2TS      4362 (0x110A)   0x81            AC3             hun (Hungarian)         5323.860                638                     424,801,280     2,489,070       
00001.M2TS      4363 (0x110B)   0x81            AC3             isl (Icelandic)         5323.860                638                     424,801,280     2,489,070       
00001.M2TS      4364 (0x110C)   0x81            AC3             pol (Polish)            5323.860                638                     424,801,280     2,489,070       
00001.M2TS      4365 (0x110D)   0x81            AC3             por (Portuguese)        5323.860                638                     424,801,280     2,489,070       
00001.M2TS      4366 (0x110E)   0x81            AC3             ron (Romanian)          5323.860                638                     424,801,280     2,489,070       
00001.M2TS      4367 (0x110F)   0x81            AC3             srp (Serbian)           5323.860                638                     424,801,280     2,489,070       
00001.M2TS      4368 (0x1110)   0x81            AC3             slk (Slovak)            5323.860                638                     424,801,280     2,489,070       
00001.M2TS      4369 (0x1111)   0x81            AC3             slv (Slovenian)         5323.860                638                     424,801,280     2,489,070       
00001.M2TS      4370 (0x1112)   0x81            AC3             tam (Tamil)             5323.860                638                     424,801,280     2,489,070       
00001.M2TS      4371 (0x1113)   0x81            AC3             tel (Telugu)            5323.860                638                     424,801,280     2,489,070       
00001.M2TS      4372 (0x1114)   0x81            AC3             tur (Turkish)           5323.860                638                     424,801,280     2,489,070       
00001.M2TS      4608 (0x1200)   0x90            PGS             eng (English)           5323.860                40                      26,759,383      154,304         
00001.M2TS      4609 (0x1201)   0x90            PGS             eng (English)           5323.860                48                      32,126,408      185,856         
00001.M2TS      4610 (0x1202)   0x90            PGS             ara (Arabic)            5323.860                21                      13,718,036      83,761          
00001.M2TS      4611 (0x1203)   0x90            PGS             bul (Bulgarian)         5323.860                34                      22,907,844      133,737         
00001.M2TS      4612 (0x1204)   0x90            PGS             hrv (Croatian)          5323.860                35                      23,127,851      135,035         
00001.M2TS      4613 (0x1205)   0x90            PGS             ces (Czech)             5323.860                35                      22,985,592      134,008         
00001.M2TS      4614 (0x1206)   0x90            PGS             nld (Dutch)             5323.860                32                      21,216,247      122,299         
00001.M2TS      4615 (0x1207)   0x90            PGS             ell (Greek)             5323.860                40                      26,305,597      152,215         
00001.M2TS      4616 (0x1208)   0x90            PGS             heb (Hebrew)            5323.860                25                      16,931,245      101,354         
00001.M2TS      4617 (0x1209)   0x90            PGS             hun (Hungarian)         5323.860                37                      24,863,107      144,320         
00001.M2TS      4618 (0x120A)   0x90            PGS             isl (Icelandic)         5323.860                36                      24,254,452      140,779         
00001.M2TS      4619 (0x120B)   0x90            PGS             pol (Polish)            5323.860                38                      25,264,748      146,498         
00001.M2TS      4620 (0x120C)   0x90            PGS             por (Portuguese)        5323.860                39                      26,024,172      150,588         
00001.M2TS      4621 (0x120D)   0x90            PGS             ron (Romanian)          5323.860                37                      24,314,820      140,762         
00001.M2TS      4622 (0x120E)   0x90            PGS             srp (Serbian)           5323.860                37                      24,861,381      144,504         
00001.M2TS      4623 (0x120F)   0x90            PGS             slk (Slovak)            5323.860                36                      24,055,920      139,947         
00001.M2TS      4624 (0x1210)   0x90            PGS             slv (Slovenian)         5323.860                30                      20,008,418      116,759         
00001.M2TS      4625 (0x1211)   0x90            PGS             tur (Turkish)           5323.860                42                      28,075,484      161,759         
00381.M2TS      4113 (0x1011)   0x1B            AVC                                     483.692                 22,444                  1,356,995,807   7,381,787       
00381.M2TS      4352 (0x1100)   0x86            DTS-HD MA       eng (English)           483.692                 2,609                   157,771,228     929,540         
00381.M2TS      4353 (0x1101)   0x81            AC3             eng (English)           483.692                 640                     38,709,760      226,815         
00381.M2TS      4354 (0x1102)   0x81            AC3             ara (Arabic)            483.692                 640                     38,709,760      226,815         
00381.M2TS      4355 (0x1103)   0x81            AC3             bul (Bulgarian)         483.692                 640                     38,709,760      226,815         
00381.M2TS      4356 (0x1104)   0x81            AC3             hrv (Croatian)          483.692                 640                     38,709,760      226,815         
00381.M2TS      4357 (0x1105)   0x81            AC3             ces (Czech)             483.692                 640                     38,709,760      226,815         
00381.M2TS      4358 (0x1106)   0x81            AC3             nld (Dutch)             483.692                 640                     38,709,760      226,815         
00381.M2TS      4359 (0x1107)   0x81            AC3             ell (Greek)             483.692                 640                     38,709,760      226,815         
00381.M2TS      4360 (0x1108)   0x81            AC3             heb (Hebrew)            483.692                 640                     38,709,760      226,815         
00381.M2TS      4361 (0x1109)   0x81            AC3             hin (Hindi)             483.692                 640                     38,709,760      226,815         
00381.M2TS      4362 (0x110A)   0x81            AC3             hun (Hungarian)         483.692                 640                     38,709,760      226,815         
00381.M2TS      4363 (0x110B)   0x81            AC3             isl (Icelandic)         483.692                 640                     38,709,760      226,815         
00381.M2TS      4364 (0x110C)   0x81            AC3             pol (Polish)            483.692                 640                     38,709,760      226,815         
00381.M2TS      4365 (0x110D)   0x81            AC3             por (Portuguese)        483.692                 640                     38,709,760      226,815         
00381.M2TS      4366 (0x110E)   0x81            AC3             ron (Romanian)          483.692                 640                     38,709,760      226,815         
00381.M2TS      4367 (0x110F)   0x81            AC3             srp (Serbian)           483.692                 640                     38,709,760      226,815         
00381.M2TS      4368 (0x1110)   0x81            AC3             slk (Slovak)            483.692                 640                     38,709,760      226,815         
00381.M2TS      4369 (0x1111)   0x81            AC3             slv (Slovenian)         483.692                 640                     38,709,760      226,815         
00381.M2TS      4370 (0x1112)   0x81            AC3             tam (Tamil)             483.692                 640                     38,709,760      226,815         
00381.M2TS      4371 (0x1113)   0x81            AC3             tel (Telugu)            483.692                 640                     38,709,760      226,815         
00381.M2TS      4372 (0x1114)   0x81            AC3             tur (Turkish)           483.692                 640                     38,709,760      226,815         
00381.M2TS      4608 (0x1200)   0x90            PGS             eng (English)           483.692                 0                       70              7               
00381.M2TS      4609 (0x1201)   0x90            PGS             eng (English)           483.692                 38                      2,318,391       13,170          
00381.M2TS      4610 (0x1202)   0x90            PGS             ara (Arabic)            483.692                 0                       21,767          131             
00381.M2TS      4611 (0x1203)   0x90            PGS             bul (Bulgarian)         483.692                 0                       27,153          154             
00381.M2TS      4612 (0x1204)   0x90            PGS             hrv (Croatian)          483.692                 1                       42,726          246             
00381.M2TS      4613 (0x1205)   0x90            PGS             ces (Czech)             483.692                 0                       22,034          126             
00381.M2TS      4614 (0x1206)   0x90            PGS             nld (Dutch)             483.692                 1                       31,404          177             
00381.M2TS      4615 (0x1207)   0x90            PGS             ell (Greek)             483.692                 0                       70              7               
00381.M2TS      4616 (0x1208)   0x90            PGS             heb (Hebrew)            483.692                 1                       33,983          199             
00381.M2TS      4617 (0x1209)   0x90            PGS             hun (Hungarian)         483.692                 0                       30,185          171             
00381.M2TS      4618 (0x120A)   0x90            PGS             isl (Icelandic)         483.692                 0                       24,801          142             
00381.M2TS      4619 (0x120B)   0x90            PGS             pol (Polish)            483.692                 0                       27,187          154             
00381.M2TS      4620 (0x120C)   0x90            PGS             por (Portuguese)        483.692                 0                       26,165          149             
00381.M2TS      4621 (0x120D)   0x90            PGS             ron (Romanian)          483.692                 1                       43,027          248             
00381.M2TS      4622 (0x120E)   0x90            PGS             srp (Serbian)           483.692                 1                       40,528          234             
00381.M2TS      4623 (0x120F)   0x90            PGS             slk (Slovak)            483.692                 0                       23,344          134             
00381.M2TS      4624 (0x1210)   0x90            PGS             slv (Slovenian)         483.692                 1                       37,554          218             
00381.M2TS      4625 (0x1211)   0x90            PGS             tur (Turkish)           483.692                 0                       19,970          115             

[/code]
<---- END FORUMS PASTE ---->

QUICK SUMMARY:

Disc Title: Angry Birds Movie 2, The – Blu-ray™
Disc Label: The.Angry.Birds.Movie.2.2019.1080p.EUR.Blu-ray.AVC.DTS-HD.MA.5.1-CapBd
Disc Size: 42,151,791,242 bytes
Protection: AACS
Playlist: 00436.MPLS
Size: 30,046,157,760 bytes
Length: 1:36:47.802
Total Bitrate: 41.39 Mbps
Video: MPEG-4 AVC Video / 22644 kbps / 1080p / 23.976 fps / 16:9 / High Profile 4.1
Audio: English / DTS-HD Master Audio / 5.1 / 48 kHz /  2285 kbps / 16-bit (DTS Core: 5.1 / 48 kHz /  1509 kbps / 16-bit)
Audio: English / Dolby Digital Audio / 5.1 / 48 kHz /   640 kbps / DN -31dB
Audio: Arabic / Dolby Digital Audio / 5.1 / 48 kHz /   640 kbps / DN -31dB
Audio: Bulgarian / Dolby Digital Audio / 5.1 / 48 kHz /   640 kbps / DN -31dB
Audio: Croatian / Dolby Digital Audio / 5.1 / 48 kHz /   640 kbps / DN -31dB
Audio: Czech / Dolby Digital Audio / 5.1 / 48 kHz /   640 kbps / DN -31dB
Audio: Dutch / Dolby Digital Audio / 5.1 / 48 kHz /   640 kbps / DN -31dB
Audio: Greek / Dolby Digital Audio / 5.1 / 48 kHz /   640 kbps / DN -31dB
Audio: Hebrew / Dolby Digital Audio / 5.1 / 48 kHz /   640 kbps / DN -31dB
Audio: Hindi / Dolby Digital Audio / 5.1 / 48 kHz /   640 kbps / DN -31dB
Audio: Hungarian / Dolby Digital Audio / 5.1 / 48 kHz /   640 kbps / DN -31dB
Audio: Icelandic / Dolby Digital Audio / 5.1 / 48 kHz /   640 kbps / DN -31dB
Audio: Polish / Dolby Digital Audio / 5.1 / 48 kHz /   640 kbps / DN -31dB
Audio: Portuguese / Dolby Digital Audio / 5.1 / 48 kHz /   640 kbps / DN -31dB
Audio: Romanian / Dolby Digital Audio / 5.1 / 48 kHz /   640 kbps / DN -31dB
Audio: Serbian / Dolby Digital Audio / 5.1 / 48 kHz /   640 kbps / DN -31dB
Audio: Slovak / Dolby Digital Audio / 5.1 / 48 kHz /   640 kbps / DN -31dB
Audio: Slovenian / Dolby Digital Audio / 5.1 / 48 kHz /   640 kbps / DN -31dB
Audio: Tamil / Dolby Digital Audio / 5.1 / 48 kHz /   640 kbps / DN -31dB
Audio: Telugu / Dolby Digital Audio / 5.1 / 48 kHz /   640 kbps / DN -31dB
Audio: Turkish / Dolby Digital Audio / 5.1 / 48 kHz /   640 kbps / DN -31dB
Subtitle: English / 36.860 kbps
Subtitle: English / 47.446 kbps
Subtitle: Arabic / 18.926 kbps
Subtitle: Bulgarian / 31.592 kbps
Subtitle: Croatian / 31.916 kbps
Subtitle: Czech / 31.692 kbps
Subtitle: Dutch / 29.268 kbps
Subtitle: Greek / 36.235 kbps
Subtitle: Hebrew / 23.369 kbps
Subtitle: Hungarian / 34.289 kbps
Subtitle: Icelandic / 33.444 kbps
Subtitle: Polish / 34.839 kbps
Subtitle: Portuguese / 35.883 kbps
Subtitle: Romanian / 33.552 kbps
Subtitle: Serbian / 34.301 kbps
Subtitle: Slovak / 33.168 kbps
Subtitle: Slovenian / 27.612 kbps
Subtitle: Turkish / 38.700 kbps


********************
PLAYLIST: 00437.MPLS
********************

<--- BEGIN FORUMS PASTE --->
[code]
                                                                                                                Total   Video                                             
Title                                                           Codec   Length  Movie Size      Disc Size       Bitrate Bitrate Main Audio Track                          Secondary Audio Track
-----                                                           ------  ------- --------------  --------------  ------- ------- ------------------                        ---------------------
00437.MPLS                                                      AVC     1:36:47 30,040,800,192  42,151,791,242  41.38   22.64   DTS-HD Master 5.1 2285Kbps (48kHz/16-bit) DD AC3 5.1 640Kbps
[/code]

[code]

DISC INFO:

Disc Title:     Angry Birds Movie 2, The – Blu-ray™
Disc Label:     The.Angry.Birds.Movie.2.2019.1080p.EUR.Blu-ray.AVC.DTS-HD.MA.5.1-CapBd
Disc Size:      42,151,791,242 bytes
Protection:     AACS
Extras:         BD-Java
BDInfo:         0.7.5.5

PLAYLIST REPORT:

Name:                   00437.MPLS
Length:                 1:36:47.802 (h:m:s.ms)
Size:                   30,040,800,192 bytes
Total Bitrate:          41.38 Mbps

VIDEO:

Codec                   Bitrate             Description     
-----                   -------             -----------     
MPEG-4 AVC Video        22637 kbps          1080p / 23.976 fps / 16:9 / High Profile 4.1

AUDIO:

Codec                           Language        Bitrate         Description     
-----                           --------        -------         -----------     
DTS-HD Master Audio             English         2285 kbps       5.1 / 48 kHz /  2285 kbps / 16-bit (DTS Core: 5.1 / 48 kHz /  1509 kbps / 16-bit)
Dolby Digital Audio             English         640 kbps        5.1 / 48 kHz /   640 kbps / DN -31dB
Dolby Digital Audio             Arabic          640 kbps        5.1 / 48 kHz /   640 kbps / DN -31dB
Dolby Digital Audio             Bulgarian       640 kbps        5.1 / 48 kHz /   640 kbps / DN -31dB
Dolby Digital Audio             Croatian        640 kbps        5.1 / 48 kHz /   640 kbps / DN -31dB
Dolby Digital Audio             Czech           640 kbps        5.1 / 48 kHz /   640 kbps / DN -31dB
Dolby Digital Audio             Dutch           640 kbps        5.1 / 48 kHz /   640 kbps / DN -31dB
Dolby Digital Audio             Greek           640 kbps        5.1 / 48 kHz /   640 kbps / DN -31dB
Dolby Digital Audio             Hebrew          640 kbps        5.1 / 48 kHz /   640 kbps / DN -31dB
Dolby Digital Audio             Hindi           640 kbps        5.1 / 48 kHz /   640 kbps / DN -31dB
Dolby Digital Audio             Hungarian       640 kbps        5.1 / 48 kHz /   640 kbps / DN -31dB
Dolby Digital Audio             Icelandic       640 kbps        5.1 / 48 kHz /   640 kbps / DN -31dB
Dolby Digital Audio             Polish          640 kbps        5.1 / 48 kHz /   640 kbps / DN -31dB
Dolby Digital Audio             Portuguese      640 kbps        5.1 / 48 kHz /   640 kbps / DN -31dB
Dolby Digital Audio             Romanian        640 kbps        5.1 / 48 kHz /   640 kbps / DN -31dB
Dolby Digital Audio             Serbian         640 kbps        5.1 / 48 kHz /   640 kbps / DN -31dB
Dolby Digital Audio             Slovak          640 kbps        5.1 / 48 kHz /   640 kbps / DN -31dB
Dolby Digital Audio             Slovenian       640 kbps        5.1 / 48 kHz /   640 kbps / DN -31dB
Dolby Digital Audio             Tamil           640 kbps        5.1 / 48 kHz /   640 kbps / DN -31dB
Dolby Digital Audio             Telugu          640 kbps        5.1 / 48 kHz /   640 kbps / DN -31dB
Dolby Digital Audio             Turkish         640 kbps        5.1 / 48 kHz /   640 kbps / DN -31dB

SUBTITLES:

Codec                           Language        Bitrate         Description     
-----                           --------        -------         -----------     
Presentation Graphics           English         36.860 kbps                     
Presentation Graphics           English         47.446 kbps                     
Presentation Graphics           Arabic          18.926 kbps                     
Presentation Graphics           Bulgarian       31.592 kbps                     
Presentation Graphics           Croatian        31.916 kbps                     
Presentation Graphics           Czech           31.692 kbps                     
Presentation Graphics           Dutch           29.268 kbps                     
Presentation Graphics           Greek           36.235 kbps                     
Presentation Graphics           Hebrew          23.369 kbps                     
Presentation Graphics           Hungarian       34.289 kbps                     
Presentation Graphics           Icelandic       33.444 kbps                     
Presentation Graphics           Polish          34.839 kbps                     
Presentation Graphics           Portuguese      35.883 kbps                     
Presentation Graphics           Romanian        33.552 kbps                     
Presentation Graphics           Serbian         34.301 kbps                     
Presentation Graphics           Slovak          33.168 kbps                     
Presentation Graphics           Slovenian       27.612 kbps                     
Presentation Graphics           Turkish         38.700 kbps                     

FILES:

Name            Time In         Length          Size            Total Bitrate   
----            -------         ------          ----            -------------   
00001.M2TS      0:00:00.000     1:28:43.985     27,571,293,120  41,430          
00382.M2TS      1:28:43.985     0:08:03.816     2,469,507,072   40,834          

CHAPTERS:

Number          Time In         Length          Avg Video Rate  Max 1-Sec Rate  Max 1-Sec Time  Max 5-Sec Rate  Max 5-Sec Time  Max 10Sec Rate  Max 10Sec Time  Avg Frame Size  Max Frame Size  Max Frame Time  
------          -------         ------          --------------  --------------  --------------  --------------  --------------  --------------  --------------  --------------  --------------  --------------  
1               0:00:00.000     0:05:19.485     22,587 kbps     44,125 kbps     00:04:13.544    30,334 kbps     00:00:59.017    27,719 kbps     00:00:58.933    117,743 bytes   693,491 bytes   00:04:44.993    
2               0:05:19.485     0:06:46.406     22,950 kbps     44,577 kbps     00:05:25.116    31,771 kbps     00:11:52.503    29,253 kbps     00:11:48.499    119,653 bytes   755,263 bytes   00:08:55.826    
3               0:12:05.891     0:06:46.781     22,329 kbps     41,373 kbps     00:16:52.803    29,285 kbps     00:17:19.037    27,764 kbps     00:17:18.037    116,415 bytes   723,618 bytes   00:12:07.560    
4               0:18:52.673     0:05:19.193     22,532 kbps     40,292 kbps     00:19:23.370    30,010 kbps     00:21:24.324    28,023 kbps     00:21:19.319    117,471 bytes   745,747 bytes   00:19:36.383    
5               0:24:11.867     0:04:34.816     22,534 kbps     40,846 kbps     00:28:18.613    28,132 kbps     00:25:02.501    25,974 kbps     00:24:50.906    117,482 bytes   771,613 bytes   00:25:04.711    
6               0:28:46.683     0:06:01.778     23,088 kbps     41,677 kbps     00:29:32.020    28,292 kbps     00:29:59.714    26,411 kbps     00:29:54.709    120,372 bytes   748,168 bytes   00:30:43.216    
7               0:34:48.461     0:05:21.696     23,458 kbps     45,145 kbps     00:39:10.389    33,367 kbps     00:39:06.260    32,094 kbps     00:39:17.730    122,299 bytes   733,776 bytes   00:39:30.785    
8               0:40:10.157     0:07:00.670     22,783 kbps     43,785 kbps     00:41:46.003    31,963 kbps     00:42:30.005    29,208 kbps     00:41:40.748    118,778 bytes   761,011 bytes   00:40:19.834    
9               0:47:10.828     0:05:45.553     22,500 kbps     41,662 kbps     00:50:54.134    32,044 kbps     00:49:57.285    28,416 kbps     00:49:52.072    117,304 bytes   746,044 bytes   00:49:53.782    
10              0:52:56.381     0:05:08.308     22,413 kbps     34,763 kbps     00:57:05.130    26,581 kbps     00:55:34.998    24,793 kbps     00:57:03.920    116,850 bytes   761,558 bytes   00:52:56.965    
11              0:58:04.689     0:06:31.432     22,833 kbps     44,334 kbps     01:00:48.061    27,503 kbps     01:00:46.726    25,074 kbps     01:00:54.776    119,043 bytes   771,342 bytes   01:03:47.698    
12              1:04:36.122     0:05:19.527     22,265 kbps     39,032 kbps     01:05:36.557    32,655 kbps     01:05:32.470    26,515 kbps     01:09:09.311    116,080 bytes   775,577 bytes   01:05:18.039    
13              1:09:55.649     0:05:44.635     23,669 kbps     43,828 kbps     01:11:56.353    30,257 kbps     01:11:53.892    27,351 kbps     01:11:48.804    123,397 bytes   756,677 bytes   01:10:30.601    
14              1:15:40.285     0:05:30.830     22,140 kbps     40,973 kbps     01:18:44.010    31,807 kbps     01:18:44.010    31,423 kbps     01:18:44.010    120,549 bytes   751,426 bytes   01:16:25.122    
15              1:21:11.116     0:05:15.732     22,001 kbps     37,645 kbps     01:25:11.272    29,776 kbps     01:25:08.103    26,907 kbps     01:25:18.238    114,702 bytes   712,507 bytes   01:21:16.913    
16              1:26:26.848     0:10:20.953     22,242 kbps     49,527 kbps     01:31:46.501    28,331 kbps     01:31:46.209    26,343 kbps     01:35:42.987    115,965 bytes   708,992 bytes   01:27:07.972    

STREAM DIAGNOSTICS:

File            PID             Type            Codec           Language                Seconds                 Bitrate                 Bytes           Packets         
----            ---             ----            -----           --------                --------------          --------------          -------------   -----           
00001.M2TS      4113 (0x1011)   0x1B            AVC                                     5323.860                22,663                  15,081,940,157  82,042,056      
00001.M2TS      4352 (0x1100)   0x86            DTS-HD MA       eng (English)           5323.860                2,256                   1,501,112,428   8,997,621       
00001.M2TS      4353 (0x1101)   0x81            AC3             eng (English)           5323.860                638                     424,801,280     2,489,070       
00001.M2TS      4354 (0x1102)   0x81            AC3             ara (Arabic)            5323.860                638                     424,801,280     2,489,070       
00001.M2TS      4355 (0x1103)   0x81            AC3             bul (Bulgarian)         5323.860                638                     424,801,280     2,489,070       
00001.M2TS      4356 (0x1104)   0x81            AC3             hrv (Croatian)          5323.860                638                     424,801,280     2,489,070       
00001.M2TS      4357 (0x1105)   0x81            AC3             ces (Czech)             5323.860                638                     424,801,280     2,489,070       
00001.M2TS      4358 (0x1106)   0x81            AC3             nld (Dutch)             5323.860                638                     424,801,280     2,489,070       
00001.M2TS      4359 (0x1107)   0x81            AC3             ell (Greek)             5323.860                638                     424,801,280     2,489,070       
00001.M2TS      4360 (0x1108)   0x81            AC3             heb (Hebrew)            5323.860                638                     424,801,280     2,489,070       
00001.M2TS      4361 (0x1109)   0x81            AC3             hin (Hindi)             5323.860                638                     424,801,280     2,489,070       
00001.M2TS      4362 (0x110A)   0x81            AC3             hun (Hungarian)         5323.860                638                     424,801,280     2,489,070       
00001.M2TS      4363 (0x110B)   0x81            AC3             isl (Icelandic)         5323.860                638                     424,801,280     2,489,070       
00001.M2TS      4364 (0x110C)   0x81            AC3             pol (Polish)            5323.860                638                     424,801,280     2,489,070       
00001.M2TS      4365 (0x110D)   0x81            AC3             por (Portuguese)        5323.860                638                     424,801,280     2,489,070       
00001.M2TS      4366 (0x110E)   0x81            AC3             ron (Romanian)          5323.860                638                     424,801,280     2,489,070       
00001.M2TS      4367 (0x110F)   0x81            AC3             srp (Serbian)           5323.860                638                     424,801,280     2,489,070       
00001.M2TS      4368 (0x1110)   0x81            AC3             slk (Slovak)            5323.860                638                     424,801,280     2,489,070       
00001.M2TS      4369 (0x1111)   0x81            AC3             slv (Slovenian)         5323.860                638                     424,801,280     2,489,070       
00001.M2TS      4370 (0x1112)   0x81            AC3             tam (Tamil)             5323.860                638                     424,801,280     2,489,070       
00001.M2TS      4371 (0x1113)   0x81            AC3             tel (Telugu)            5323.860                638                     424,801,280     2,489,070       
00001.M2TS      4372 (0x1114)   0x81            AC3             tur (Turkish)           5323.860                638                     424,801,280     2,489,070       
00001.M2TS      4608 (0x1200)   0x90            PGS             eng (English)           5323.860                40                      26,759,383      154,304         
00001.M2TS      4609 (0x1201)   0x90            PGS             eng (English)           5323.860                48                      32,126,408      185,856         
00001.M2TS      4610 (0x1202)   0x90            PGS             ara (Arabic)            5323.860                21                      13,718,036      83,761          
00001.M2TS      4611 (0x1203)   0x90            PGS             bul (Bulgarian)         5323.860                34                      22,907,844      133,737         
00001.M2TS      4612 (0x1204)   0x90            PGS             hrv (Croatian)          5323.860                35                      23,127,851      135,035         
00001.M2TS      4613 (0x1205)   0x90            PGS             ces (Czech)             5323.860                35                      22,985,592      134,008         
00001.M2TS      4614 (0x1206)   0x90            PGS             nld (Dutch)             5323.860                32                      21,216,247      122,299         
00001.M2TS      4615 (0x1207)   0x90            PGS             ell (Greek)             5323.860                40                      26,305,597      152,215         
00001.M2TS      4616 (0x1208)   0x90            PGS             heb (Hebrew)            5323.860                25                      16,931,245      101,354         
00001.M2TS      4617 (0x1209)   0x90            PGS             hun (Hungarian)         5323.860                37                      24,863,107      144,320         
00001.M2TS      4618 (0x120A)   0x90            PGS             isl (Icelandic)         5323.860                36                      24,254,452      140,779         
00001.M2TS      4619 (0x120B)   0x90            PGS             pol (Polish)            5323.860                38                      25,264,748      146,498         
00001.M2TS      4620 (0x120C)   0x90            PGS             por (Portuguese)        5323.860                39                      26,024,172      150,588         
00001.M2TS      4621 (0x120D)   0x90            PGS             ron (Romanian)          5323.860                37                      24,314,820      140,762         
00001.M2TS      4622 (0x120E)   0x90            PGS             srp (Serbian)           5323.860                37                      24,861,381      144,504         
00001.M2TS      4623 (0x120F)   0x90            PGS             slk (Slovak)            5323.860                36                      24,055,920      139,947         
00001.M2TS      4624 (0x1210)   0x90            PGS             slv (Slovenian)         5323.860                30                      20,008,418      116,759         
00001.M2TS      4625 (0x1211)   0x90            PGS             tur (Turkish)           5323.860                42                      28,075,484      161,759         
00382.M2TS      4113 (0x1011)   0x1B            AVC                                     483.733                 22,357                  1,351,851,802   7,353,875       
00382.M2TS      4352 (0x1100)   0x86            DTS-HD MA       eng (English)           483.733                 2,609                   157,771,228     929,540         
00382.M2TS      4353 (0x1101)   0x81            AC3             eng (English)           483.733                 640                     38,709,760      226,815         
00382.M2TS      4354 (0x1102)   0x81            AC3             ara (Arabic)            483.733                 640                     38,709,760      226,815         
00382.M2TS      4355 (0x1103)   0x81            AC3             bul (Bulgarian)         483.733                 640                     38,709,760      226,815         
00382.M2TS      4356 (0x1104)   0x81            AC3             hrv (Croatian)          483.733                 640                     38,709,760      226,815         
00382.M2TS      4357 (0x1105)   0x81            AC3             ces (Czech)             483.733                 640                     38,709,760      226,815         
00382.M2TS      4358 (0x1106)   0x81            AC3             nld (Dutch)             483.733                 640                     38,709,760      226,815         
00382.M2TS      4359 (0x1107)   0x81            AC3             ell (Greek)             483.733                 640                     38,709,760      226,815         
00382.M2TS      4360 (0x1108)   0x81            AC3             heb (Hebrew)            483.733                 640                     38,709,760      226,815         
00382.M2TS      4361 (0x1109)   0x81            AC3             hin (Hindi)             483.733                 640                     38,709,760      226,815         
00382.M2TS      4362 (0x110A)   0x81            AC3             hun (Hungarian)         483.733                 640                     38,709,760      226,815         
00382.M2TS      4363 (0x110B)   0x81            AC3             isl (Icelandic)         483.733                 640                     38,709,760      226,815         
00382.M2TS      4364 (0x110C)   0x81            AC3             pol (Polish)            483.733                 640                     38,709,760      226,815         
00382.M2TS      4365 (0x110D)   0x81            AC3             por (Portuguese)        483.733                 640                     38,709,760      226,815         
00382.M2TS      4366 (0x110E)   0x81            AC3             ron (Romanian)          483.733                 640                     38,709,760      226,815         
00382.M2TS      4367 (0x110F)   0x81            AC3             srp (Serbian)           483.733                 640                     38,709,760      226,815         
00382.M2TS      4368 (0x1110)   0x81            AC3             slk (Slovak)            483.733                 640                     38,709,760      226,815         
00382.M2TS      4369 (0x1111)   0x81            AC3             slv (Slovenian)         483.733                 640                     38,709,760      226,815         
00382.M2TS      4370 (0x1112)   0x81            AC3             tam (Tamil)             483.733                 640                     38,709,760      226,815         
00382.M2TS      4371 (0x1113)   0x81            AC3             tel (Telugu)            483.733                 640                     38,709,760      226,815         
00382.M2TS      4372 (0x1114)   0x81            AC3             tur (Turkish)           483.733                 640                     38,709,760      226,815         
00382.M2TS      4608 (0x1200)   0x90            PGS             eng (English)           483.733                 0                       70              7               
00382.M2TS      4609 (0x1201)   0x90            PGS             eng (English)           483.733                 38                      2,318,391       13,170          
00382.M2TS      4610 (0x1202)   0x90            PGS             ara (Arabic)            483.733                 0                       21,767          131             
00382.M2TS      4611 (0x1203)   0x90            PGS             bul (Bulgarian)         483.733                 0                       27,153          154             
00382.M2TS      4612 (0x1204)   0x90            PGS             hrv (Croatian)          483.733                 1                       42,726          246             
00382.M2TS      4613 (0x1205)   0x90            PGS             ces (Czech)             483.733                 0                       22,034          126             
00382.M2TS      4614 (0x1206)   0x90            PGS             nld (Dutch)             483.733                 1                       31,404          177             
00382.M2TS      4615 (0x1207)   0x90            PGS             ell (Greek)             483.733                 0                       70              7               
00382.M2TS      4616 (0x1208)   0x90            PGS             heb (Hebrew)            483.733                 1                       33,983          199             
00382.M2TS      4617 (0x1209)   0x90            PGS             hun (Hungarian)         483.733                 0                       30,185          171             
00382.M2TS      4618 (0x120A)   0x90            PGS             isl (Icelandic)         483.733                 0                       24,801          142             
00382.M2TS      4619 (0x120B)   0x90            PGS             pol (Polish)            483.733                 0                       27,187          154             
00382.M2TS      4620 (0x120C)   0x90            PGS             por (Portuguese)        483.733                 0                       26,165          149             
00382.M2TS      4621 (0x120D)   0x90            PGS             ron (Romanian)          483.733                 1                       43,027          248             
00382.M2TS      4622 (0x120E)   0x90            PGS             srp (Serbian)           483.733                 1                       40,528          234             
00382.M2TS      4623 (0x120F)   0x90            PGS             slk (Slovak)            483.733                 0                       23,344          134             
00382.M2TS      4624 (0x1210)   0x90            PGS             slv (Slovenian)         483.733                 1                       37,554          218             
00382.M2TS      4625 (0x1211)   0x90            PGS             tur (Turkish)           483.733                 0                       19,970          115             

[/code]
<---- END FORUMS PASTE ---->

QUICK SUMMARY:

Disc Title: Angry Birds Movie 2, The – Blu-ray™
Disc Label: The.Angry.Birds.Movie.2.2019.1080p.EUR.Blu-ray.AVC.DTS-HD.MA.5.1-CapBd
Disc Size: 42,151,791,242 bytes
Protection: AACS
Playlist: 00437.MPLS
Size: 30,040,800,192 bytes
Length: 1:36:47.802
Total Bitrate: 41.38 Mbps
Video: MPEG-4 AVC Video / 22637 kbps / 1080p / 23.976 fps / 16:9 / High Profile 4.1
Audio: English / DTS-HD Master Audio / 5.1 / 48 kHz /  2285 kbps / 16-bit (DTS Core: 5.1 / 48 kHz /  1509 kbps / 16-bit)
Audio: English / Dolby Digital Audio / 5.1 / 48 kHz /   640 kbps / DN -31dB
Audio: Arabic / Dolby Digital Audio / 5.1 / 48 kHz /   640 kbps / DN -31dB
Audio: Bulgarian / Dolby Digital Audio / 5.1 / 48 kHz /   640 kbps / DN -31dB
Audio: Croatian / Dolby Digital Audio / 5.1 / 48 kHz /   640 kbps / DN -31dB
Audio: Czech / Dolby Digital Audio / 5.1 / 48 kHz /   640 kbps / DN -31dB
Audio: Dutch / Dolby Digital Audio / 5.1 / 48 kHz /   640 kbps / DN -31dB
Audio: Greek / Dolby Digital Audio / 5.1 / 48 kHz /   640 kbps / DN -31dB
Audio: Hebrew / Dolby Digital Audio / 5.1 / 48 kHz /   640 kbps / DN -31dB
Audio: Hindi / Dolby Digital Audio / 5.1 / 48 kHz /   640 kbps / DN -31dB
Audio: Hungarian / Dolby Digital Audio / 5.1 / 48 kHz /   640 kbps / DN -31dB
Audio: Icelandic / Dolby Digital Audio / 5.1 / 48 kHz /   640 kbps / DN -31dB
Audio: Polish / Dolby Digital Audio / 5.1 / 48 kHz /   640 kbps / DN -31dB
Audio: Portuguese / Dolby Digital Audio / 5.1 / 48 kHz /   640 kbps / DN -31dB
Audio: Romanian / Dolby Digital Audio / 5.1 / 48 kHz /   640 kbps / DN -31dB
Audio: Serbian / Dolby Digital Audio / 5.1 / 48 kHz /   640 kbps / DN -31dB
Audio: Slovak / Dolby Digital Audio / 5.1 / 48 kHz /   640 kbps / DN -31dB
Audio: Slovenian / Dolby Digital Audio / 5.1 / 48 kHz /   640 kbps / DN -31dB
Audio: Tamil / Dolby Digital Audio / 5.1 / 48 kHz /   640 kbps / DN -31dB
Audio: Telugu / Dolby Digital Audio / 5.1 / 48 kHz /   640 kbps / DN -31dB
Audio: Turkish / Dolby Digital Audio / 5.1 / 48 kHz /   640 kbps / DN -31dB
Subtitle: English / 36.860 kbps
Subtitle: English / 47.446 kbps
Subtitle: Arabic / 18.926 kbps
Subtitle: Bulgarian / 31.592 kbps
Subtitle: Croatian / 31.916 kbps
Subtitle: Czech / 31.692 kbps
Subtitle: Dutch / 29.268 kbps
Subtitle: Greek / 36.235 kbps
Subtitle: Hebrew / 23.369 kbps
Subtitle: Hungarian / 34.289 kbps
Subtitle: Icelandic / 33.444 kbps
Subtitle: Polish / 34.839 kbps
Subtitle: Portuguese / 35.883 kbps
Subtitle: Romanian / 33.552 kbps
Subtitle: Serbian / 34.301 kbps
Subtitle: Slovak / 33.168 kbps
Subtitle: Slovenian / 27.612 kbps
Subtitle: Turkish / 38.700 kbps


********************
PLAYLIST: 00001.MPLS
********************

<--- BEGIN FORUMS PASTE --->
[code]
                                                                                                                Total   Video                                             
Title                                                           Codec   Length  Movie Size      Disc Size       Bitrate Bitrate Main Audio Track                          Secondary Audio Track
-----                                                           ------  ------- --------------  --------------  ------- ------- ------------------                        ---------------------
00001.MPLS                                                      AVC     1:28:43 27,571,293,120  42,151,791,242  41.43   22.66   DTS-HD Master 5.1 2256Kbps (48kHz/16-bit) DD AC3 5.1 640Kbps
[/code]

[code]

DISC INFO:

Disc Title:     Angry Birds Movie 2, The – Blu-ray™
Disc Label:     The.Angry.Birds.Movie.2.2019.1080p.EUR.Blu-ray.AVC.DTS-HD.MA.5.1-CapBd
Disc Size:      42,151,791,242 bytes
Protection:     AACS
Extras:         BD-Java
BDInfo:         0.7.5.5

PLAYLIST REPORT:

Name:                   00001.MPLS
Length:                 1:28:43.985 (h:m:s.ms)
Size:                   27,571,293,120 bytes
Total Bitrate:          41.43 Mbps

VIDEO:

Codec                   Bitrate             Description     
-----                   -------             -----------     
MPEG-4 AVC Video        22663 kbps          1080p / 23.976 fps / 16:9 / High Profile 4.1

AUDIO:

Codec                           Language        Bitrate         Description     
-----                           --------        -------         -----------     
DTS-HD Master Audio             English         2256 kbps       5.1 / 48 kHz /  2256 kbps / 16-bit (DTS Core: 5.1 / 48 kHz /  1509 kbps / 16-bit)
Dolby Digital Audio             English         640 kbps        5.1 / 48 kHz /   640 kbps / DN -31dB
Dolby Digital Audio             Arabic          640 kbps        5.1 / 48 kHz /   640 kbps / DN -31dB
Dolby Digital Audio             Bulgarian       640 kbps        5.1 / 48 kHz /   640 kbps / DN -31dB
Dolby Digital Audio             Croatian        640 kbps        5.1 / 48 kHz /   640 kbps / DN -31dB
Dolby Digital Audio             Czech           640 kbps        5.1 / 48 kHz /   640 kbps / DN -31dB
Dolby Digital Audio             Dutch           640 kbps        5.1 / 48 kHz /   640 kbps / DN -31dB
Dolby Digital Audio             Greek           640 kbps        5.1 / 48 kHz /   640 kbps / DN -31dB
Dolby Digital Audio             Hebrew          640 kbps        5.1 / 48 kHz /   640 kbps / DN -31dB
Dolby Digital Audio             Hindi           640 kbps        5.1 / 48 kHz /   640 kbps / DN -31dB
Dolby Digital Audio             Hungarian       640 kbps        5.1 / 48 kHz /   640 kbps / DN -31dB
Dolby Digital Audio             Icelandic       640 kbps        5.1 / 48 kHz /   640 kbps / DN -31dB
Dolby Digital Audio             Polish          640 kbps        5.1 / 48 kHz /   640 kbps / DN -31dB
Dolby Digital Audio             Portuguese      640 kbps        5.1 / 48 kHz /   640 kbps / DN -31dB
Dolby Digital Audio             Romanian        640 kbps        5.1 / 48 kHz /   640 kbps / DN -31dB
Dolby Digital Audio             Serbian         640 kbps        5.1 / 48 kHz /   640 kbps / DN -31dB
Dolby Digital Audio             Slovak          640 kbps        5.1 / 48 kHz /   640 kbps / DN -31dB
Dolby Digital Audio             Slovenian       640 kbps        5.1 / 48 kHz /   640 kbps / DN -31dB
Dolby Digital Audio             Tamil           640 kbps        5.1 / 48 kHz /   640 kbps / DN -31dB
Dolby Digital Audio             Telugu          640 kbps        5.1 / 48 kHz /   640 kbps / DN -31dB
Dolby Digital Audio             Turkish         640 kbps        5.1 / 48 kHz /   640 kbps / DN -31dB

SUBTITLES:

Codec                           Language        Bitrate         Description     
-----                           --------        -------         -----------     
Presentation Graphics           English         40.210 kbps                     
Presentation Graphics           English         48.274 kbps                     
Presentation Graphics           Arabic          20.613 kbps                     
Presentation Graphics           Bulgarian       34.422 kbps                     
Presentation Graphics           Croatian        34.753 kbps                     
Presentation Graphics           Czech           34.539 kbps                     
Presentation Graphics           Dutch           31.880 kbps                     
Presentation Graphics           Greek           39.528 kbps                     
Presentation Graphics           Hebrew          25.441 kbps                     
Presentation Graphics           Hungarian       37.360 kbps                     
Presentation Graphics           Icelandic       36.446 kbps                     
Presentation Graphics           Polish          37.964 kbps                     
Presentation Graphics           Portuguese      39.105 kbps                     
Presentation Graphics           Romanian        36.536 kbps                     
Presentation Graphics           Serbian         37.358 kbps                     
Presentation Graphics           Slovak          36.147 kbps                     
Presentation Graphics           Slovenian       30.065 kbps                     
Presentation Graphics           Turkish         42.187 kbps                     

FILES:

Name            Time In         Length          Size            Total Bitrate   
----            -------         ------          ----            -------------   
00001.M2TS      0:00:00.000     1:28:43.985     27,571,293,120  41,430          

CHAPTERS:

Number          Time In         Length          Avg Video Rate  Max 1-Sec Rate  Max 1-Sec Time  Max 5-Sec Rate  Max 5-Sec Time  Max 10Sec Rate  Max 10Sec Time  Avg Frame Size  Max Frame Size  Max Frame Time  
------          -------         ------          --------------  --------------  --------------  --------------  --------------  --------------  --------------  --------------  --------------  --------------  
1               0:00:00.000     0:05:19.485     22,587 kbps     44,125 kbps     00:04:13.544    30,334 kbps     00:00:59.017    27,719 kbps     00:00:58.933    117,743 bytes   693,491 bytes   00:04:44.993    
2               0:05:19.485     0:06:46.406     22,950 kbps     44,577 kbps     00:05:25.116    31,771 kbps     00:11:52.503    29,253 kbps     00:11:48.499    119,653 bytes   755,263 bytes   00:08:55.826    
3               0:12:05.891     0:06:46.781     22,329 kbps     41,373 kbps     00:16:52.803    29,285 kbps     00:17:19.037    27,764 kbps     00:17:18.037    116,415 bytes   723,618 bytes   00:12:07.560    
4               0:18:52.673     0:05:19.193     22,532 kbps     40,292 kbps     00:19:23.370    30,010 kbps     00:21:24.324    28,023 kbps     00:21:19.319    117,471 bytes   745,747 bytes   00:19:36.383    
5               0:24:11.867     0:04:34.816     22,534 kbps     40,846 kbps     00:28:18.613    28,132 kbps     00:25:02.501    25,974 kbps     00:24:50.906    117,482 bytes   771,613 bytes   00:25:04.711    
6               0:28:46.683     0:06:01.778     23,088 kbps     41,677 kbps     00:29:32.020    28,292 kbps     00:29:59.714    26,411 kbps     00:29:54.709    120,372 bytes   748,168 bytes   00:30:43.216    
7               0:34:48.461     0:05:21.696     23,458 kbps     45,145 kbps     00:39:10.389    33,367 kbps     00:39:06.260    32,094 kbps     00:39:17.730    122,299 bytes   733,776 bytes   00:39:30.785    
8               0:40:10.157     0:07:00.670     22,783 kbps     43,785 kbps     00:41:46.003    31,963 kbps     00:42:30.005    29,208 kbps     00:41:40.748    118,778 bytes   761,011 bytes   00:40:19.834    
9               0:47:10.828     0:05:45.553     22,500 kbps     41,662 kbps     00:50:54.134    32,044 kbps     00:49:57.285    28,416 kbps     00:49:52.072    117,304 bytes   746,044 bytes   00:49:53.782    
10              0:52:56.381     0:05:08.308     22,413 kbps     34,763 kbps     00:57:05.130    26,581 kbps     00:55:34.998    24,793 kbps     00:57:03.920    116,850 bytes   761,558 bytes   00:52:56.965    
11              0:58:04.689     0:06:31.432     22,833 kbps     44,334 kbps     01:00:48.061    27,503 kbps     01:00:46.726    25,074 kbps     01:00:54.776    119,043 bytes   771,342 bytes   01:03:47.698    
12              1:04:36.122     0:05:19.527     22,265 kbps     39,032 kbps     01:05:36.557    32,655 kbps     01:05:32.470    26,515 kbps     01:09:09.311    116,080 bytes   775,577 bytes   01:05:18.039    
13              1:09:55.649     0:05:44.635     23,669 kbps     43,828 kbps     01:11:56.353    30,257 kbps     01:11:53.892    27,351 kbps     01:11:48.804    123,397 bytes   756,677 bytes   01:10:30.601    
14              1:15:40.285     0:05:30.830     22,140 kbps     40,973 kbps     01:18:44.010    31,807 kbps     01:18:44.010    31,423 kbps     01:18:44.010    120,549 bytes   751,426 bytes   01:16:25.122    
15              1:21:11.116     0:05:15.732     22,001 kbps     37,645 kbps     01:25:11.272    29,776 kbps     01:25:08.103    26,907 kbps     01:25:18.238    114,702 bytes   712,507 bytes   01:21:16.913    
16              1:26:26.848     0:02:17.137     21,848 kbps     38,464 kbps     01:26:26.848    28,077 kbps     01:26:26.848    25,665 kbps     01:26:26.890    113,940 bytes   708,992 bytes   01:27:07.972    

STREAM DIAGNOSTICS:

File            PID             Type            Codec           Language                Seconds                 Bitrate                 Bytes           Packets         
----            ---             ----            -----           --------                --------------          --------------          -------------   -----           
00001.M2TS      4113 (0x1011)   0x1B            AVC                                     5323.860                22,663                  15,081,940,157  82,042,056      
00001.M2TS      4352 (0x1100)   0x86            DTS-HD MA       eng (English)           5323.860                2,256                   1,501,112,428   8,997,621       
00001.M2TS      4353 (0x1101)   0x81            AC3             eng (English)           5323.860                638                     424,801,280     2,489,070       
00001.M2TS      4354 (0x1102)   0x81            AC3             ara (Arabic)            5323.860                638                     424,801,280     2,489,070       
00001.M2TS      4355 (0x1103)   0x81            AC3             bul (Bulgarian)         5323.860                638                     424,801,280     2,489,070       
00001.M2TS      4356 (0x1104)   0x81            AC3             hrv (Croatian)          5323.860                638                     424,801,280     2,489,070       
00001.M2TS      4357 (0x1105)   0x81            AC3             ces (Czech)             5323.860                638                     424,801,280     2,489,070       
00001.M2TS      4358 (0x1106)   0x81            AC3             nld (Dutch)             5323.860                638                     424,801,280     2,489,070       
00001.M2TS      4359 (0x1107)   0x81            AC3             ell (Greek)             5323.860                638                     424,801,280     2,489,070       
00001.M2TS      4360 (0x1108)   0x81            AC3             heb (Hebrew)            5323.860                638                     424,801,280     2,489,070       
00001.M2TS      4361 (0x1109)   0x81            AC3             hin (Hindi)             5323.860                638                     424,801,280     2,489,070       
00001.M2TS      4362 (0x110A)   0x81            AC3             hun (Hungarian)         5323.860                638                     424,801,280     2,489,070       
00001.M2TS      4363 (0x110B)   0x81            AC3             isl (Icelandic)         5323.860                638                     424,801,280     2,489,070       
00001.M2TS      4364 (0x110C)   0x81            AC3             pol (Polish)            5323.860                638                     424,801,280     2,489,070       
00001.M2TS      4365 (0x110D)   0x81            AC3             por (Portuguese)        5323.860                638                     424,801,280     2,489,070       
00001.M2TS      4366 (0x110E)   0x81            AC3             ron (Romanian)          5323.860                638                     424,801,280     2,489,070       
00001.M2TS      4367 (0x110F)   0x81            AC3             srp (Serbian)           5323.860                638                     424,801,280     2,489,070       
00001.M2TS      4368 (0x1110)   0x81            AC3             slk (Slovak)            5323.860                638                     424,801,280     2,489,070       
00001.M2TS      4369 (0x1111)   0x81            AC3             slv (Slovenian)         5323.860                638                     424,801,280     2,489,070       
00001.M2TS      4370 (0x1112)   0x81            AC3             tam (Tamil)             5323.860                638                     424,801,280     2,489,070       
00001.M2TS      4371 (0x1113)   0x81            AC3             tel (Telugu)            5323.860                638                     424,801,280     2,489,070       
00001.M2TS      4372 (0x1114)   0x81            AC3             tur (Turkish)           5323.860                638                     424,801,280     2,489,070       
00001.M2TS      4608 (0x1200)   0x90            PGS             eng (English)           5323.860                40                      26,759,383      154,304         
00001.M2TS      4609 (0x1201)   0x90            PGS             eng (English)           5323.860                48                      32,126,408      185,856         
00001.M2TS      4610 (0x1202)   0x90            PGS             ara (Arabic)            5323.860                21                      13,718,036      83,761          
00001.M2TS      4611 (0x1203)   0x90            PGS             bul (Bulgarian)         5323.860                34                      22,907,844      133,737         
00001.M2TS      4612 (0x1204)   0x90            PGS             hrv (Croatian)          5323.860                35                      23,127,851      135,035         
00001.M2TS      4613 (0x1205)   0x90            PGS             ces (Czech)             5323.860                35                      22,985,592      134,008         
00001.M2TS      4614 (0x1206)   0x90            PGS             nld (Dutch)             5323.860                32                      21,216,247      122,299         
00001.M2TS      4615 (0x1207)   0x90            PGS             ell (Greek)             5323.860                40                      26,305,597      152,215         
00001.M2TS      4616 (0x1208)   0x90            PGS             heb (Hebrew)            5323.860                25                      16,931,245      101,354         
00001.M2TS      4617 (0x1209)   0x90            PGS             hun (Hungarian)         5323.860                37                      24,863,107      144,320         
00001.M2TS      4618 (0x120A)   0x90            PGS             isl (Icelandic)         5323.860                36                      24,254,452      140,779         
00001.M2TS      4619 (0x120B)   0x90            PGS             pol (Polish)            5323.860                38                      25,264,748      146,498         
00001.M2TS      4620 (0x120C)   0x90            PGS             por (Portuguese)        5323.860                39                      26,024,172      150,588         
00001.M2TS      4621 (0x120D)   0x90            PGS             ron (Romanian)          5323.860                37                      24,314,820      140,762         
00001.M2TS      4622 (0x120E)   0x90            PGS             srp (Serbian)           5323.860                37                      24,861,381      144,504         
00001.M2TS      4623 (0x120F)   0x90            PGS             slk (Slovak)            5323.860                36                      24,055,920      139,947         
00001.M2TS      4624 (0x1210)   0x90            PGS             slv (Slovenian)         5323.860                30                      20,008,418      116,759         
00001.M2TS      4625 (0x1211)   0x90            PGS             tur (Turkish)           5323.860                42                      28,075,484      161,759         

[/code]
<---- END FORUMS PASTE ---->

QUICK SUMMARY:

Disc Title: Angry Birds Movie 2, The – Blu-ray™
Disc Label: The.Angry.Birds.Movie.2.2019.1080p.EUR.Blu-ray.AVC.DTS-HD.MA.5.1-CapBd
Disc Size: 42,151,791,242 bytes
Protection: AACS
Playlist: 00001.MPLS
Size: 27,571,293,120 bytes
Length: 1:28:43.985
Total Bitrate: 41.43 Mbps
Video: MPEG-4 AVC Video / 22663 kbps / 1080p / 23.976 fps / 16:9 / High Profile 4.1
Audio: English / DTS-HD Master Audio / 5.1 / 48 kHz /  2256 kbps / 16-bit (DTS Core: 5.1 / 48 kHz /  1509 kbps / 16-bit)
Audio: English / Dolby Digital Audio / 5.1 / 48 kHz /   640 kbps / DN -31dB
Audio: Arabic / Dolby Digital Audio / 5.1 / 48 kHz /   640 kbps / DN -31dB
Audio: Bulgarian / Dolby Digital Audio / 5.1 / 48 kHz /   640 kbps / DN -31dB
Audio: Croatian / Dolby Digital Audio / 5.1 / 48 kHz /   640 kbps / DN -31dB
Audio: Czech / Dolby Digital Audio / 5.1 / 48 kHz /   640 kbps / DN -31dB
Audio: Dutch / Dolby Digital Audio / 5.1 / 48 kHz /   640 kbps / DN -31dB
Audio: Greek / Dolby Digital Audio / 5.1 / 48 kHz /   640 kbps / DN -31dB
Audio: Hebrew / Dolby Digital Audio / 5.1 / 48 kHz /   640 kbps / DN -31dB
Audio: Hindi / Dolby Digital Audio / 5.1 / 48 kHz /   640 kbps / DN -31dB
Audio: Hungarian / Dolby Digital Audio / 5.1 / 48 kHz /   640 kbps / DN -31dB
Audio: Icelandic / Dolby Digital Audio / 5.1 / 48 kHz /   640 kbps / DN -31dB
Audio: Polish / Dolby Digital Audio / 5.1 / 48 kHz /   640 kbps / DN -31dB
Audio: Portuguese / Dolby Digital Audio / 5.1 / 48 kHz /   640 kbps / DN -31dB
Audio: Romanian / Dolby Digital Audio / 5.1 / 48 kHz /   640 kbps / DN -31dB
Audio: Serbian / Dolby Digital Audio / 5.1 / 48 kHz /   640 kbps / DN -31dB
Audio: Slovak / Dolby Digital Audio / 5.1 / 48 kHz /   640 kbps / DN -31dB
Audio: Slovenian / Dolby Digital Audio / 5.1 / 48 kHz /   640 kbps / DN -31dB
Audio: Tamil / Dolby Digital Audio / 5.1 / 48 kHz /   640 kbps / DN -31dB
Audio: Telugu / Dolby Digital Audio / 5.1 / 48 kHz /   640 kbps / DN -31dB
Audio: Turkish / Dolby Digital Audio / 5.1 / 48 kHz /   640 kbps / DN -31dB
Subtitle: English / 40.210 kbps
Subtitle: English / 48.274 kbps
Subtitle: Arabic / 20.613 kbps
Subtitle: Bulgarian / 34.422 kbps
Subtitle: Croatian / 34.753 kbps
Subtitle: Czech / 34.539 kbps
Subtitle: Dutch / 31.880 kbps
Subtitle: Greek / 39.528 kbps
Subtitle: Hebrew / 25.441 kbps
Subtitle: Hungarian / 37.360 kbps
Subtitle: Icelandic / 36.446 kbps
Subtitle: Polish / 37.964 kbps
Subtitle: Portuguese / 39.105 kbps
Subtitle: Romanian / 36.536 kbps
Subtitle: Serbian / 37.358 kbps
Subtitle: Slovak / 36.147 kbps
Subtitle: Slovenian / 30.065 kbps
Subtitle: Turkish / 42.187 kbps

